<?xml version="1.0" encoding="UTF-8"?>
<svg id="Capa_1" data-name="Capa 1" xmlns="http://www.w3.org/2000/svg" viewBox="0 0 16 16">
  <defs>
    <style>
      .cls-1 {
        fill: #fff;
      }

      .cls-2 {
        fill: #5aafff;
      }
    </style>
  </defs>
  <rect class="cls-2" x="1" y="1" width="14" height="11" rx="2" ry="2"/>
  <polygon class="cls-2" points="3 12 3 15 6 12 3 12"/>
  <path class="cls-1" d="M3.75,4h8.5c.41,0,.75.34.75.75h0c0,.41-.34.75-.75.75H3.75c-.41,0-.75-.34-.75-.75h0c0-.41.34-.75.75-.75Z"/>
  <path class="cls-1" d="M3.75,7h5.5c.41,0,.75.34.75.75h0c0,.41-.34.75-.75.75H3.75c-.41,0-.75-.34-.75-.75h0c0-.41.34-.75.75-.75Z"/>
</svg>